<svg width="80" height="70" viewBox="0 0 80 70" fill="none" xmlns="http://www.w3.org/2000/svg">
<path d="M34.6095 65.4074L17.4027 64.2747C16.7316 64.2192 16.0583 63.942 15.3617 63.3316C14.604 62.6675 14.0499 61.9258 13.6743 61.1041C13.4061 60.4724 13.233 59.8393 13.1493 59.2014C13.0757 58.6395 13.1089 57.9081 13.3068 56.9776C13.5302 55.9271 13.7032 55.1736 13.8276 54.6992C13.9354 54.2884 14.2239 53.4572 14.7352 52.1385C14.8951 51.7261 15.0336 51.3664 15.1505 51.0603C18.3218 51.3602 25.0209 51.6929 35.1802 52.0616L34.6095 65.4074ZM18.4863 27.0077L23.6218 37.315L22.3636 36.5644C21.3975 35.988 20.1478 36.1636 19.383 37.0112C17.6199 38.965 16.042 40.9319 14.6519 42.9128C13.1722 45.0213 12.0322 46.8864 11.2601 48.4963C10.5446 49.9883 9.94608 51.3486 9.46829 52.5746L2.8758 40.7668C2.85113 40.7226 2.82443 40.6796 2.79581 40.6378C2.45502 40.141 2.29448 39.6435 2.27607 39.1171C2.25078 38.3938 2.33525 38.0049 2.40475 37.8331L2.71887 37.1595C3.68074 35.5145 5.21137 33.1001 7.32391 29.9014C8.06507 28.7792 7.73041 27.2664 6.58765 26.5623L18.4863 27.0077ZM63.9566 12.5405L64.1627 12.4256L58.1381 22.1625L46.2195 21.6202L47.2164 21.0791C48.2746 20.5046 48.7471 19.2195 48.2814 18.0884C47.3065 15.7205 46.2377 13.494 45.0739 11.4106C43.824 9.17298 42.6485 7.33321 41.5462 5.91688C40.5749 4.66905 39.6521 3.56882 38.7779 2.62085L52.6528 2.6535C52.7047 2.65363 52.7566 2.6513 52.8082 2.64653C53.4529 2.58706 54.0218 2.6903 54.5505 2.9423C55.2322 3.26721 55.5774 3.54109 55.73 3.71317L56.1643 4.27759C57.2389 5.88328 58.7657 8.3444 60.7519 11.6783C61.4096 12.7823 62.8285 13.169 63.9566 12.5405ZM63.7815 63.508C63.1526 63.9361 62.7386 64.0834 62.5117 64.1175C62.4794 64.1224 62.4473 64.1283 62.4154 64.1351L61.7011 64.2864C59.7467 64.4664 56.789 64.6251 52.8062 64.7603C51.4793 64.8053 50.44 65.9287 50.5081 67.2614L50.5188 67.4698L44.1056 57.715L50.2054 47.739L50.2628 49.09C50.3133 50.282 51.2411 51.2576 52.4373 51.3588C57.2975 51.7696 61.4246 51.8287 64.7952 51.5159C67.3678 51.2772 69.5401 50.9434 71.2715 50.4941L64.9025 62.0877C64.8779 62.1324 64.8554 62.1782 64.8351 62.225C64.598 62.7713 64.2523 63.1875 63.7815 63.508ZM56.3836 30.4636L68.3795 23.3396L77.0264 37.4531C77.3968 38.2015 77.5074 38.9239 77.3984 39.6609C77.2718 40.5164 76.9559 41.3427 76.4258 42.1497C76.1378 42.5697 75.76 42.978 75.2759 43.3703C74.7283 43.8139 74.2293 44.162 73.7782 44.4248C73.369 44.6632 72.7547 44.936 71.8951 45.2315C70.99 45.5427 70.3175 45.7603 69.8637 45.8914C69.404 46.0242 68.6607 46.2173 67.6168 46.4731C67.3089 46.5486 67.0316 46.6168 66.7849 46.6777C65.249 43.9924 61.7655 38.5679 56.3836 30.4636Z" fill="#87CE28"/>
<path d="M7.32391 29.9014C5.21137 33.1001 3.68074 35.5145 2.71887 37.1595L2.40475 37.8331C2.33525 38.0049 2.25078 38.3938 2.27607 39.1171C2.29448 39.6435 2.45502 40.141 2.79581 40.6378C2.82443 40.6796 2.85113 40.7226 2.8758 40.7668L9.46829 52.5746C9.94608 51.3486 10.5446 49.9883 11.2601 48.4963C12.0322 46.8864 13.1722 45.0213 14.6519 42.9128C16.042 40.9319 17.6199 38.965 19.383 37.0112C20.1478 36.1636 21.3975 35.988 22.3636 36.5644L23.6218 37.315L18.4863 27.0077L6.58765 26.5623C7.73041 27.2664 8.06507 28.7792 7.32391 29.9014ZM7.32391 29.9014L5.94709 28.9921M63.7815 63.508L64.7101 64.872M63.7815 63.508C63.1526 63.9361 62.7386 64.0834 62.5117 64.1175C62.4794 64.1224 62.4473 64.1283 62.4154 64.1351L61.7011 64.2864C59.7467 64.4664 56.789 64.6251 52.8062 64.7603C51.4793 64.8053 50.44 65.9287 50.5081 67.2614L50.5188 67.4698L44.1056 57.715L50.2054 47.739L50.2628 49.09C50.3133 50.282 51.2411 51.2576 52.4373 51.3588C57.2975 51.7696 61.4246 51.8287 64.7952 51.5159C67.3678 51.2772 69.5401 50.9434 71.2715 50.4941L64.9025 62.0877C64.8779 62.1324 64.8554 62.1782 64.8351 62.225C64.598 62.7713 64.2523 63.1875 63.7815 63.508ZM68.4583 22.2372L67.91 22.5731L67.911 22.5749M69.1377 22.8986C69.138 22.8984 69.1384 22.8981 69.1387 22.8979L68.6943 22.0926M34.6095 65.4074L17.4027 64.2747C16.7316 64.2192 16.0583 63.942 15.3617 63.3316C14.604 62.6675 14.0499 61.9258 13.6743 61.1041C13.4061 60.4724 13.233 59.8393 13.1493 59.2014C13.0757 58.6395 13.1089 57.9081 13.3068 56.9776C13.5302 55.9271 13.7032 55.1736 13.8276 54.6992C13.9354 54.2884 14.2239 53.4572 14.7352 52.1385C14.8951 51.7261 15.0336 51.3664 15.1505 51.0603C18.3218 51.3602 25.0209 51.6929 35.1802 52.0616L34.6095 65.4074ZM63.9566 12.5405L64.1627 12.4256L58.1381 22.1625L46.2195 21.6202L47.2164 21.0791C48.2746 20.5046 48.7471 19.2195 48.2814 18.0884C47.3065 15.7205 46.2377 13.494 45.0739 11.4106C43.824 9.17298 42.6485 7.33321 41.5462 5.91688C40.5749 4.66905 39.6521 3.56882 38.7779 2.62085L52.6528 2.6535C52.7047 2.65363 52.7566 2.6513 52.8082 2.64653C53.4529 2.58706 54.0218 2.6903 54.5505 2.9423C55.2322 3.26721 55.5774 3.54109 55.73 3.71317L56.1643 4.27759C57.2389 5.88328 58.7657 8.3444 60.7519 11.6783C61.4096 12.7823 62.8285 13.169 63.9566 12.5405ZM56.3836 30.4636L68.3795 23.3396L77.0264 37.4531C77.3968 38.2015 77.5074 38.9239 77.3984 39.6609C77.2718 40.5164 76.9559 41.3427 76.4258 42.1497C76.1378 42.5697 75.76 42.978 75.2759 43.3703C74.7283 43.8139 74.2293 44.162 73.7782 44.4248C73.369 44.6632 72.7547 44.936 71.8951 45.2315C70.99 45.5427 70.3175 45.7603 69.8637 45.8914C69.404 46.0242 68.6607 46.2173 67.6168 46.4731C67.3089 46.5486 67.0316 46.6168 66.7849 46.6777C65.249 43.9924 61.7655 38.5679 56.3836 30.4636Z" stroke="#306054" stroke-width="3.3" stroke-linejoin="round"/>
</svg>
