<svg width="1441" height="29" viewBox="0 0 1441 29" fill="none" xmlns="http://www.w3.org/2000/svg">
<path d="M723.393 12.3141L711.543 12.363C711.399 12.3141 711.199 12.3141 711.05 12.363H710.905L633.246 12.6016H630.923C633.341 10.8169 635.071 7.72482 635.959 3.37961C633.69 2.99445 620.604 -0.873381 617.792 12.6505L600.264 12.6993L599.228 12.5094L588.071 10.6704C586.19 10.383 584.317 10.09 582.493 9.80249C580.612 9.51498 578.739 9.31969 576.864 9.07558C561.854 7.29084 546.699 7.00332 531.639 8.15879C528.383 8.40291 525.073 8.73924 521.813 9.1244C524.235 7.33966 525.223 4.29638 524.824 0C523.149 0.189865 513.074 0.238683 513.817 10.2364C512.236 10.4806 510.706 10.7193 509.175 11.0122L503.597 12.0754L499.943 12.8458L448.795 12.8946C453.586 11.7337 456.248 7.82247 456.84 1.20429C454.622 1.06325 441.242 -1.20971 440.45 12.6505C440.848 12.7481 441.193 12.7969 441.536 12.8458L376.864 12.8946L374.84 12.6993C373.898 12.6016 372.96 12.5094 372.023 12.363C371.086 12.2165 370.148 12.1188 369.212 12.0267C367.332 11.8313 365.408 11.636 363.533 11.5439C359.73 11.2997 355.931 11.2509 352.128 11.3973C348.423 11.5873 344.724 11.929 341.07 12.363C340.127 12.4606 339.24 12.6505 338.303 12.7481L337.61 12.8458L259.458 12.7969C262.025 11.0122 263.805 7.87128 264.742 3.37961C262.469 2.99445 249.288 -0.873382 246.521 12.7969H229.835L221.097 11.3973L215.668 10.5294L210.189 9.70485L204.705 9.03218L199.227 8.45173C191.869 7.82247 184.516 7.48613 177.157 7.53496C168.269 7.57835 159.386 8.10998 150.547 9.17323C152.965 7.38848 154.001 4.34521 153.608 0C151.927 0.189865 141.807 0.238682 142.601 10.2853C139.489 10.7681 136.378 11.2997 133.268 11.929C132.032 12.1677 130.851 12.4606 129.614 12.6993L92.2898 12.6505L78.4659 12.6016C82.6635 11.2021 85.0811 7.38848 85.5747 1.20429C83.3511 1.06325 70.0263 -1.20971 69.1834 12.6016L2.18763 12.3141H2.13772C2.08781 12.3141 2.03791 12.3141 1.99355 12.3141C1.94364 12.3141 1.94364 12.3141 1.89374 12.3141C1.84383 12.3141 1.79392 12.363 1.74401 12.363C1.74401 12.363 1.69412 12.363 1.69412 12.4118C1.64421 12.4118 1.5943 12.4606 1.54439 12.5094C1.54439 12.5094 1.49449 12.5094 1.49449 12.5582C1.45013 12.6016 1.40022 12.6016 1.35032 12.6505L1.30041 12.6993C1.25051 12.7481 1.2006 12.7969 1.2006 12.8458C1.2006 12.8458 1.2006 12.8946 1.15069 12.8946C1.10079 12.9435 1.10079 12.9922 1.05088 13.041V13.0844C1.05088 13.1333 1.00098 13.1821 1.00098 13.2797V13.3286C1.00098 13.3774 1.00098 13.3774 1.00098 13.4263C1.00098 13.475 1.00098 13.475 1.00098 13.5239C1.00098 13.5239 1.00098 13.5239 1.00098 13.5727C1.00098 13.5727 1.00098 13.5727 1.00098 13.6161C1.00098 13.6648 1.00098 13.7625 1.00098 13.8114V13.8602C1.00098 13.909 1.05088 13.9578 1.05088 14.0555V14.0989C1.05088 14.1477 1.10079 14.1965 1.15069 14.2453C1.15069 14.2453 1.15069 14.2942 1.2006 14.2942C1.25051 14.343 1.25051 14.3918 1.30041 14.4406L1.35032 14.4895C1.40022 14.5383 1.45013 14.5383 1.45013 14.5817L1.49449 14.6305C1.54439 14.6793 1.5943 14.6793 1.64421 14.6793C1.69412 14.6793 1.69412 14.7282 1.74401 14.7282C1.79392 14.7282 1.84383 14.777 1.84383 14.777C1.89374 14.777 1.94364 14.777 1.99355 14.8257H2.03791L37.1438 18.0644C37.094 18.0644 37.0441 18.0644 36.9941 18.1077C37.2437 26.4672 41.4857 29.9933 49.7312 28.686C49.4872 27.384 48.9438 21.1023 44.103 18.7371L45.9328 18.8835C49.5815 19.2199 53.2357 19.605 56.8899 19.898C58.7198 20.0444 60.5442 20.1366 62.4184 20.2831C64.2483 20.3808 66.1225 20.4784 67.9524 20.5272C75.3052 20.7659 82.7135 20.6194 90.0662 20.1854C97.4245 19.7514 104.733 18.8835 112.036 17.7226C115.691 17.1422 119.294 16.4694 122.899 15.7426C124.728 15.3574 126.553 14.9723 128.333 14.5383L161.11 14.4895C163.827 24.1943 169.949 27.1887 179.43 23.4728C178.887 22.2632 177.308 17.2886 173.359 14.4895H182.492L230.429 14.4406L242.623 16.4694C246.227 17.0499 249.881 17.6738 253.535 18.1566L256.247 18.5471L259.014 18.8835C260.844 19.1222 262.668 19.2686 264.493 19.464C269.976 19.9467 275.456 20.2342 280.934 20.3319C283.007 27.9157 287.649 30.232 294.857 27.3353C294.414 26.3696 293.078 22.3119 289.773 20.3319C296.044 20.1854 302.36 19.8491 308.582 19.2199C310.411 19.0788 312.236 18.8346 314.06 18.5905C315.89 18.3518 317.714 18.1077 319.545 17.869L330.407 16.2742L335.836 15.5039L338.553 15.1133C339.44 14.9723 340.378 14.8257 341.264 14.7282C342.302 14.6305 343.288 14.4895 344.326 14.3918H369.556C370.248 14.4895 370.986 14.5383 371.679 14.6305C372.617 14.777 373.553 14.8257 374.49 14.9234L397.004 17.0011L408.51 18.1077C408.36 18.1077 408.26 18.1566 408.116 18.1566C408.36 26.5161 412.607 30.0422 420.853 28.7348C420.604 27.4329 420.06 21.0589 415.125 18.7371L419.517 19.171C423.271 19.5127 427.025 19.898 430.773 20.1366L433.59 20.3319L436.402 20.4784C438.281 20.576 440.205 20.576 442.08 20.6682C457.19 20.9123 472.344 19.7514 487.206 17.0499C490.909 16.4207 494.614 15.5961 498.313 14.777L499.649 14.4895H532.132C534.849 24.2431 540.971 27.2864 550.497 23.5216C549.954 22.3119 548.329 17.2886 544.376 14.4895L601.695 14.5817C608.211 15.6449 614.681 16.757 621.197 17.7714C631.417 19.3175 641.736 20.1854 652.106 20.3808C654.179 27.9157 658.821 30.232 666.024 27.3353C665.58 26.3696 664.249 22.3607 660.989 20.3808C662.819 20.3319 664.593 20.2831 666.423 20.1854C673.976 19.898 681.527 19.171 688.986 18.1077L711.349 14.8746H711.399L723.249 14.9234C723.936 14.9234 724.479 14.3918 724.479 13.7137C724.63 12.8458 724.036 12.3141 723.393 12.3141ZM111.742 16.0843C104.533 17.1909 97.225 17.9667 89.9221 18.4007C82.6136 18.8346 75.3052 18.8835 67.9968 18.5905C66.1724 18.5471 64.3481 18.4007 62.5183 18.3031C60.6939 18.1566 58.864 18.0644 57.0396 17.9179C53.3854 17.5816 49.7312 17.1909 46.077 16.8547L24.9503 14.6793L92.2898 14.4895L120.925 14.4406C117.913 15.0211 114.853 15.5961 111.742 16.0843ZM169.605 12.6505C168.174 12.3141 166.544 12.3141 164.715 12.6505L137.167 12.6016C150.347 10.1877 163.777 8.93453 177.208 8.83689C184.516 8.78807 191.869 9.07558 199.127 9.75367L204.605 10.3341L210.04 11.0122L215.468 11.8313L220.803 12.6993L182.492 12.6505H169.605ZM319.295 15.6938C315.69 16.2253 312.086 16.757 308.431 17.1422C293.921 18.7371 279.209 18.8835 264.642 17.6738C260.988 17.3375 257.334 17.0011 253.729 16.4694C250.125 15.9866 246.521 15.4062 242.873 14.8257L239.562 14.2942H251.018C252.693 14.5383 254.223 14.5383 255.61 14.2942L328.477 14.2453L319.295 15.6938ZM487.056 15.3574C472.295 17.9667 457.24 19.1222 442.229 18.7858C440.355 18.7371 438.475 18.6882 436.601 18.5905L433.784 18.4495L430.973 18.2542C427.219 18.0156 423.52 17.6249 419.766 17.2398L397.303 14.9723L390.638 14.2942L492.734 14.343C490.86 14.6793 488.936 15.0211 487.056 15.3574ZM535.587 12.7481H507.351L509.425 12.363C516.827 11.0611 524.286 10.09 531.739 9.51498C546.699 8.35409 561.804 8.69043 576.664 10.4806C581.506 11.0611 586.29 11.8313 591.081 12.6016L543.044 12.6993H541.02C539.49 12.3141 537.66 12.2654 535.587 12.7481ZM688.737 15.8402C681.333 16.9523 673.876 17.7714 666.373 18.1566C651.412 18.9323 636.352 18.2054 621.491 16.0843C618.086 15.5961 614.681 15.0211 611.271 14.4895H623.615C624.258 14.5383 624.901 14.5383 625.495 14.4895H633.197L696.288 14.6793L688.737 15.8402Z" fill="#A2C17C"/>
<path d="M314.654 3.77488C312.939 3.44613 302.966 0.383029 300.804 10.5586C308.273 13.2042 312.889 10.9291 314.654 3.77488Z" fill="#A2C17C"/>
<path d="M683.933 3.77488C682.216 3.44613 672.244 0.383029 670.087 10.5586C677.55 13.2042 682.167 10.9291 683.933 3.77488Z" fill="#A2C17C"/>
<path d="M1439.89 12.3141L1428.05 12.363C1427.9 12.3141 1427.71 12.3141 1427.56 12.363H1427.41L1349.8 12.6016H1347.48C1349.9 10.8169 1351.63 7.72482 1352.52 3.37961C1350.25 2.99445 1337.17 -0.873381 1334.36 12.6505L1316.85 12.6993L1315.81 12.5094L1304.66 10.6704C1302.78 10.383 1300.91 10.09 1299.08 9.80249C1297.21 9.51498 1295.33 9.31969 1293.46 9.07558C1278.46 7.29084 1263.32 7.00332 1248.27 8.15879C1245.01 8.40291 1241.7 8.73924 1238.45 9.1244C1240.87 7.33966 1241.86 4.29638 1241.45 0C1239.79 0.189865 1229.71 0.238683 1230.46 10.2364C1228.88 10.4806 1227.35 10.7193 1225.82 11.0122L1220.25 12.0754L1216.6 12.8458L1165.48 12.8946C1170.26 11.7337 1172.93 7.82247 1173.52 1.20429C1171.3 1.06325 1157.94 -1.20971 1157.14 12.6505C1157.54 12.7481 1157.89 12.7969 1158.23 12.8458L1093.6 12.8946L1091.58 12.6993C1090.63 12.6016 1089.69 12.5094 1088.75 12.363C1087.83 12.2165 1086.89 12.1188 1085.95 12.0267C1084.07 11.8313 1082.15 11.636 1080.27 11.5439C1076.48 11.2997 1072.67 11.2509 1068.88 11.3973C1065.18 11.5873 1061.48 11.929 1057.83 12.363C1056.89 12.4606 1056 12.6505 1055.06 12.7481L1054.37 12.8458L976.271 12.7969C978.836 11.0122 980.615 7.87128 981.552 3.37961C979.279 2.99445 966.108 -0.873382 963.343 12.7969H946.669L937.936 11.3973L932.511 10.5294L927.03 9.70485L921.556 9.03218L916.081 8.45173C908.727 7.82247 901.38 7.48613 894.026 7.53496C885.144 7.57835 876.267 8.10998 867.433 9.17323C869.849 7.38848 870.886 4.34521 870.493 0C868.813 0.189865 858.7 0.238682 859.493 10.2853C856.384 10.7681 853.275 11.2997 850.167 11.929C848.931 12.1677 847.751 12.4606 846.515 12.6993L809.216 12.6505L795.402 12.6016C799.597 11.2021 802.013 7.38848 802.506 1.20429C800.283 1.06325 786.963 -1.20971 786.125 12.6016L719.176 12.3141H719.125C719.076 12.3141 719.025 12.3141 718.976 12.3141C718.931 12.3141 718.931 12.3141 718.882 12.3141C718.832 12.3141 718.782 12.363 718.732 12.363C718.732 12.363 718.682 12.363 718.682 12.4118C718.632 12.4118 718.582 12.4606 718.533 12.5094C718.533 12.5094 718.482 12.5094 718.482 12.5582C718.438 12.6016 718.389 12.6016 718.338 12.6505L718.289 12.6993C718.238 12.7481 718.189 12.7969 718.189 12.8458C718.189 12.8458 718.189 12.8946 718.14 12.8946C718.089 12.9435 718.089 12.9922 718.04 13.041V13.0844C718.04 13.1333 717.989 13.1821 717.989 13.2797V13.3286C717.989 13.3774 717.989 13.3774 717.989 13.4263C717.989 13.475 717.989 13.475 717.989 13.5239C717.989 13.5239 717.989 13.5239 717.989 13.5727C717.989 13.5727 717.989 13.5727 717.989 13.6161C717.989 13.6648 717.989 13.7625 717.989 13.8114V13.8602C717.989 13.909 718.04 13.9578 718.04 14.0555V14.0989C718.04 14.1477 718.089 14.1965 718.14 14.2453C718.14 14.2453 718.14 14.2942 718.189 14.2942C718.238 14.343 718.238 14.3918 718.289 14.4406L718.338 14.4895C718.389 14.5383 718.438 14.5383 718.438 14.5817L718.482 14.6305C718.533 14.6793 718.582 14.6793 718.632 14.6793C718.682 14.6793 718.682 14.7282 718.732 14.7282C718.782 14.7282 718.832 14.777 718.832 14.777C718.882 14.777 718.931 14.777 718.976 14.8257H719.025L754.108 18.0644C754.058 18.0644 754.008 18.0644 753.958 18.1077C754.208 26.4672 758.447 29.9933 766.686 28.686C766.442 27.384 765.9 21.1023 761.063 18.7371L762.89 18.8835C766.537 19.2199 770.189 19.605 773.841 19.898C775.67 20.0444 777.492 20.1366 779.366 20.2831C781.194 20.3808 783.067 20.4784 784.896 20.5272C792.244 20.7659 799.647 20.6194 806.994 20.1854C814.348 19.7514 821.651 18.8835 828.949 17.7226C832.6 17.1422 836.203 16.4694 839.804 15.7426C841.633 15.3574 843.456 14.9723 845.235 14.5383L877.99 14.4895C880.705 24.1943 886.823 27.1887 896.298 23.4728C895.755 22.2632 894.176 17.2886 890.23 14.4895H899.358L947.262 14.4406L959.447 16.4694C963.049 17.0499 966.701 17.6738 970.353 18.1566L973.062 18.5471L975.827 18.8835C977.65 19.1222 979.479 19.2686 981.302 19.464C986.782 19.9467 992.256 20.2342 997.734 20.3319C999.802 27.9157 1004.44 30.232 1011.64 27.3353C1011.2 26.3696 1009.87 22.3119 1006.56 20.3319C1012.83 20.1854 1019.14 19.8491 1025.36 19.2199C1027.19 19.0788 1029.02 18.8346 1030.83 18.5905C1032.67 18.3518 1034.48 18.1077 1036.32 17.869L1047.16 16.2742L1052.6 15.5039L1055.31 15.1133C1056.2 14.9723 1057.14 14.8257 1058.02 14.7282C1059.06 14.6305 1060.05 14.4895 1061.08 14.3918H1086.29C1086.99 14.4895 1087.73 14.5383 1088.41 14.6305C1089.35 14.777 1090.29 14.8257 1091.23 14.9234L1113.72 17.0011L1125.22 18.1077C1125.07 18.1077 1124.97 18.1566 1124.83 18.1566C1125.07 26.5161 1129.32 30.0422 1137.56 28.7348C1137.31 27.4329 1136.76 21.0589 1131.83 18.7371L1136.22 19.171C1139.97 19.5127 1143.72 19.898 1147.46 20.1366L1150.29 20.3319L1153.09 20.4784C1154.97 20.576 1156.9 20.576 1158.77 20.6682C1173.86 20.9123 1189.02 19.7514 1203.87 17.0499C1207.57 16.4207 1211.26 15.5961 1214.96 14.777L1216.3 14.4895H1248.76C1251.48 24.2431 1257.59 27.2864 1267.11 23.5216C1266.57 22.3119 1264.94 17.2886 1260.99 14.4895L1318.28 14.5817C1324.79 15.6449 1331.25 16.757 1337.77 17.7714C1347.98 19.3175 1358.29 20.1854 1368.65 20.3808C1370.73 27.9157 1375.36 30.232 1382.56 27.3353C1382.11 26.3696 1380.78 22.3607 1377.52 20.3808C1379.36 20.3319 1381.14 20.2831 1382.96 20.1854C1390.51 19.898 1398.05 19.171 1405.51 18.1077L1427.85 14.8746H1427.9L1439.75 14.9234C1440.43 14.9234 1440.98 14.3918 1440.98 13.7137C1441.13 12.8458 1440.53 12.3141 1439.89 12.3141ZM828.655 16.0843C821.451 17.1909 814.148 17.9667 806.851 18.4007C799.547 18.8346 792.244 18.8835 784.94 18.5905C783.116 18.5471 781.293 18.4007 779.465 18.3031C777.642 18.1566 775.813 18.0644 773.99 17.9179C770.338 17.5816 766.686 17.1909 763.035 16.8547L741.922 14.6793L809.216 14.4895L837.832 14.4406C834.823 15.0211 831.764 15.5961 828.655 16.0843ZM886.479 12.6505C885.049 12.3141 883.42 12.3141 881.591 12.6505L854.062 12.6016C867.234 10.1877 880.655 8.93453 894.077 8.83689C901.38 8.78807 908.727 9.07558 915.981 9.75367L921.456 10.3341L926.887 11.0122L932.311 11.8313L937.642 12.6993L899.358 12.6505H886.479ZM1036.07 15.6938C1032.47 16.2253 1028.86 16.757 1025.21 17.1422C1010.71 18.7371 996.009 18.8835 981.452 17.6738C977.8 17.3375 974.149 17.0011 970.546 16.4694C966.945 15.9866 963.343 15.4062 959.697 14.8257L956.388 14.2942H967.837C969.51 14.5383 971.04 14.5383 972.425 14.2942L1045.25 14.2453L1036.07 15.6938ZM1203.71 15.3574C1188.97 17.9667 1173.91 19.1222 1158.91 18.7858C1157.05 18.7371 1155.16 18.6882 1153.3 18.5905L1150.48 18.4495L1147.67 18.2542C1143.91 18.0156 1140.21 17.6249 1136.47 17.2398L1114.02 14.9723L1107.37 14.2942L1209.39 14.343C1207.52 14.6793 1205.59 15.0211 1203.71 15.3574ZM1252.22 12.7481H1224L1226.07 12.363C1233.46 11.0611 1240.92 10.09 1248.36 9.51498C1263.32 8.35409 1278.41 8.69043 1293.26 10.4806C1298.1 11.0611 1302.89 11.8313 1307.67 12.6016L1259.67 12.6993H1257.64C1256.11 12.3141 1254.28 12.2654 1252.22 12.7481ZM1405.26 15.8402C1397.85 16.9523 1390.41 17.7714 1382.91 18.1566C1367.96 18.9323 1352.91 18.2054 1338.06 16.0843C1334.65 15.5961 1331.25 15.0211 1327.84 14.4895H1340.18C1340.83 14.5383 1341.47 14.5383 1342.06 14.4895H1349.75L1412.8 14.6793L1405.26 15.8402Z" fill="#A2C17C"/>
<path d="M1045.62 3.77488C1043.91 3.44613 1033.93 0.383029 1031.77 10.5586C1039.24 13.2042 1043.86 10.9291 1045.62 3.77488Z" fill="#A2C17C"/>
<path d="M1414.89 3.77488C1413.18 3.44613 1403.2 0.383029 1401.05 10.5586C1408.51 13.2042 1413.13 10.9291 1414.89 3.77488Z" fill="#A2C17C"/>
</svg>
