<svg width="1435" height="28" viewBox="0 0 1435 28" fill="none" xmlns="http://www.w3.org/2000/svg">
<g clip-path="url(#clip0_2021_19180)">
<path d="M716.153 12.3007L704.414 12.3461C704.271 12.3007 704.073 12.3007 703.925 12.3461H703.782L626.85 12.5677H624.549C626.944 10.9101 628.658 8.03831 629.537 4.00263C627.29 3.64491 614.326 0.0526037 611.541 12.6131L594.177 12.6584L593.15 12.4821L582.098 10.7741C580.235 10.5071 578.379 10.235 576.572 9.96798C574.709 9.70095 572.853 9.51957 570.996 9.29285C556.126 7.63525 541.113 7.36821 526.194 8.44137C522.969 8.6681 519.69 8.98047 516.46 9.33819C518.86 7.68059 519.838 4.8541 519.443 0.86377C517.784 1.04011 507.803 1.08545 508.539 10.371C506.973 10.5978 505.457 10.8195 503.941 11.0915L498.415 12.079L494.795 12.7945L444.126 12.8398C448.872 11.7616 451.509 8.129 452.096 1.98227C449.899 1.85128 436.644 -0.25977 435.859 12.6131C436.254 12.7038 436.595 12.7491 436.935 12.7945L372.869 12.8398L370.864 12.6584C369.93 12.5677 369.001 12.4821 368.073 12.3461C367.145 12.21 366.216 12.1193 365.288 12.0337C363.426 11.8523 361.52 11.6709 359.663 11.5853C355.895 11.3585 352.132 11.3132 348.364 11.4492C344.694 11.6256 341.03 11.943 337.41 12.3461C336.476 12.4367 335.597 12.6131 334.669 12.7038L333.982 12.7945L256.562 12.7491C259.105 11.0915 260.868 8.17434 261.797 4.00263C259.545 3.64491 246.487 0.0526028 243.746 12.7491H227.217L218.56 11.4492L213.182 10.6431L207.755 9.87729L202.322 9.25254L196.895 8.71344C189.606 8.129 182.322 7.81662 175.032 7.86197C166.227 7.90227 157.427 8.39603 148.671 9.38354C151.066 7.72593 152.093 4.89945 151.703 0.86377C150.038 1.04011 140.013 1.08545 140.799 10.4164C137.717 10.8648 134.635 11.3585 131.554 11.943C130.329 12.1647 129.159 12.4367 127.934 12.6584L90.9594 12.6131L77.2649 12.5677C81.4232 11.2679 83.8182 7.72593 84.3071 1.98227C82.1044 1.85128 68.9043 -0.25977 68.0693 12.5677L1.70093 12.3007H1.65149C1.60205 12.3007 1.55261 12.3007 1.50867 12.3007C1.45923 12.3007 1.45923 12.3007 1.40979 12.3007C1.36035 12.3007 1.31091 12.3461 1.26147 12.3461C1.26147 12.3461 1.21204 12.3461 1.21204 12.3914C1.1626 12.3914 1.11316 12.4367 1.06372 12.4821C1.06372 12.4821 1.01428 12.4821 1.01428 12.5274C0.970337 12.5677 0.920898 12.5677 0.871459 12.6131L0.822021 12.6584C0.772583 12.7038 0.723143 12.7491 0.723143 12.7945C0.723143 12.7945 0.723143 12.8398 0.673705 12.8398C0.624267 12.8852 0.624267 12.9305 0.574829 12.9758V13.0161C0.574829 13.0615 0.525391 13.1068 0.525391 13.1975V13.2429C0.525391 13.2882 0.525391 13.2882 0.525391 13.3336C0.525391 13.3789 0.525391 13.3789 0.525391 13.4243C0.525391 13.4243 0.525391 13.4243 0.525391 13.4696C0.525391 13.4696 0.525391 13.4696 0.525391 13.5099C0.525391 13.5552 0.525391 13.6459 0.525391 13.6913V13.7366C0.525391 13.782 0.574829 13.8273 0.574829 13.918V13.9583C0.574829 14.0037 0.624267 14.049 0.673705 14.0943C0.673705 14.0943 0.673705 14.1397 0.723143 14.1397C0.772583 14.185 0.772583 14.2304 0.822021 14.2757L0.871459 14.3211C0.920898 14.3664 0.970337 14.3664 0.970337 14.4067L1.01428 14.4521C1.06372 14.4974 1.11316 14.4974 1.1626 14.4974C1.21204 14.4974 1.21204 14.5428 1.26147 14.5428C1.31091 14.5428 1.36035 14.5881 1.36035 14.5881C1.40979 14.5881 1.45923 14.5881 1.50867 14.6334H1.55261L36.3298 17.6413C36.2804 17.6413 36.231 17.6413 36.1815 17.6816C36.4287 25.4456 40.631 28.7205 48.7993 27.5063C48.5576 26.2971 48.0193 20.4628 43.2238 18.2661L45.0365 18.4021C48.651 18.7145 52.271 19.0722 55.891 19.3443C57.7037 19.4803 59.511 19.5659 61.3677 19.702C63.1804 19.7927 65.0371 19.8834 66.8499 19.9287C74.1338 20.1504 81.4727 20.0143 88.7566 19.6113C96.046 19.2082 103.286 18.4021 110.521 17.3239C114.141 16.7848 117.711 16.16 121.282 15.4849C123.094 15.1272 124.902 14.7695 126.665 14.3664L159.135 14.3211C161.827 23.3346 167.891 26.1157 177.284 22.6645C176.746 21.541 175.181 16.9208 171.269 14.3211H180.317L227.805 14.2757L239.885 16.16C243.455 16.6991 247.075 17.2786 250.695 17.727L253.381 18.0897L256.122 18.4021C257.935 18.6238 259.742 18.7598 261.55 18.9412C266.982 19.3896 272.41 19.6566 277.837 19.7473C279.891 26.7909 284.489 28.9422 291.63 26.2518C291.191 25.3549 289.867 21.5863 286.593 19.7473C292.806 19.6113 299.062 19.2989 305.226 18.7145C307.038 18.5835 308.846 18.3567 310.653 18.13C312.466 17.9083 314.273 17.6816 316.086 17.4599L326.847 15.9787L332.225 15.2632L334.916 14.9005C335.795 14.7695 336.724 14.6334 337.602 14.5428C338.63 14.4521 339.607 14.3211 340.635 14.2304H365.629C366.315 14.3211 367.046 14.3664 367.732 14.4521C368.661 14.5881 369.589 14.6334 370.517 14.7241L392.82 16.6538L404.218 17.6816C404.07 17.6816 403.971 17.727 403.828 17.727C404.07 25.491 408.277 28.7659 416.446 27.5516C416.199 26.3425 415.66 20.4225 410.771 18.2661L415.122 18.6691C418.841 18.9865 422.56 19.3443 426.273 19.5659L429.064 19.7473L431.849 19.8834C433.711 19.974 435.617 19.974 437.474 20.0597C452.443 20.2864 467.455 19.2082 482.177 16.6991C485.846 16.1147 489.516 15.3489 493.18 14.5881L494.504 14.3211H526.683C529.374 23.3799 535.439 26.2064 544.876 22.7098C544.338 21.5863 542.728 16.9208 538.812 14.3211L595.594 14.4067C602.049 15.3942 608.459 16.4271 614.914 17.3692C625.038 18.8052 635.26 19.6113 645.533 19.7927C647.587 26.7909 652.185 28.9422 659.321 26.2518C658.881 25.3549 657.563 21.6316 654.333 19.7927C656.146 19.7473 657.903 19.702 659.716 19.6113C667.198 19.3443 674.679 18.6691 682.068 17.6816L704.222 14.6788H704.271L716.01 14.7241C716.691 14.7241 717.229 14.2304 717.229 13.6006C717.378 12.7945 716.79 12.3007 716.153 12.3007ZM110.229 15.8023C103.088 16.8301 95.8483 17.5506 88.6138 17.9537C81.3738 18.3567 74.1338 18.4021 66.8938 18.13C65.0865 18.0897 63.2793 17.9537 61.4666 17.863C59.6593 17.727 57.8466 17.6413 56.0393 17.5053C52.4193 17.1929 48.7993 16.8301 45.1793 16.5178L24.2504 14.4974L90.9594 14.3211L119.326 14.2757C116.343 14.8148 113.311 15.3489 110.229 15.8023ZM167.551 12.6131C166.133 12.3007 164.518 12.3007 162.706 12.6131L135.416 12.5677C148.473 10.3257 161.777 9.16185 175.082 9.07116C182.322 9.02582 189.606 9.29285 196.796 9.92263L202.223 10.4617L207.607 11.0915L212.984 11.8523L218.269 12.6584L180.317 12.6131H167.551ZM315.839 15.4396C312.268 15.9333 308.697 16.4271 305.077 16.7848C290.702 18.2661 276.128 18.4021 261.698 17.2786C258.078 16.9662 254.458 16.6538 250.887 16.16C247.317 15.7116 243.746 15.1725 240.132 14.6334L236.852 14.1397H248.201C249.86 14.3664 251.376 14.3664 252.75 14.1397L324.935 14.0943L315.839 15.4396ZM482.029 15.1272C467.406 17.5506 452.492 18.6238 437.622 18.3114C435.765 18.2661 433.903 18.2207 432.046 18.13L429.256 17.999L426.471 17.8176C422.752 17.596 419.088 17.2332 415.369 16.8755L393.116 14.7695L386.514 14.1397L487.654 14.185C485.797 14.4974 483.891 14.8148 482.029 15.1272ZM530.105 12.7038H502.134L504.188 12.3461C511.521 11.1369 518.91 10.235 526.293 9.70095C541.113 8.62275 556.077 8.93513 570.798 10.5978C575.594 11.1369 580.334 11.8523 585.08 12.5677L537.493 12.6584H535.488C533.972 12.3007 532.159 12.2554 530.105 12.7038ZM681.821 15.5756C674.487 16.6085 667.099 17.3692 659.667 17.727C644.846 18.4474 629.927 17.7723 615.205 15.8023C611.832 15.3489 608.459 14.8148 605.081 14.3211H617.309C617.946 14.3664 618.583 14.3664 619.171 14.3211H626.801L689.302 14.4974L681.821 15.5756Z" fill="#A2C17C"/>
<path d="M313.344 3.64481C311.636 3.3274 301.704 0.369922 299.551 10.1946C306.989 12.749 311.586 10.5523 313.344 3.64481Z" fill="#A2C17C"/>
<path d="M681.085 3.64481C679.376 3.3274 669.445 0.369922 667.297 10.1946C674.729 12.749 679.327 10.5523 681.085 3.64481Z" fill="#A2C17C"/>
<path d="M1444.07 12.3007L1432.34 12.3461C1432.19 12.3007 1432 12.3007 1431.85 12.3461H1431.7L1354.77 12.5677H1352.47C1354.87 10.9101 1356.58 8.03831 1357.46 4.00263C1355.21 3.64491 1342.25 0.0526037 1339.46 12.6131L1322.1 12.6584L1321.07 12.4821L1310.02 10.7741C1308.16 10.5071 1306.3 10.235 1304.49 9.96798C1302.63 9.70095 1300.77 9.51957 1298.92 9.29285C1284.05 7.63525 1269.04 7.36821 1254.12 8.44137C1250.89 8.6681 1247.61 8.98047 1244.38 9.33819C1246.78 7.68059 1247.76 4.8541 1247.36 0.86377C1245.71 1.04011 1235.72 1.08545 1236.46 10.371C1234.9 10.5978 1233.38 10.8195 1231.86 11.0915L1226.34 12.079L1222.72 12.7945L1172.05 12.8398C1176.79 11.7616 1179.43 8.129 1180.02 1.98227C1177.82 1.85128 1164.57 -0.25977 1163.78 12.6131C1164.18 12.7038 1164.52 12.7491 1164.86 12.7945L1100.79 12.8398L1098.79 12.6584C1097.85 12.5677 1096.92 12.4821 1095.99 12.3461C1095.07 12.21 1094.14 12.1193 1093.21 12.0337C1091.35 11.8523 1089.44 11.6709 1087.58 11.5853C1083.82 11.3585 1080.05 11.3132 1076.29 11.4492C1072.62 11.6256 1068.95 11.943 1065.33 12.3461C1064.4 12.4367 1063.52 12.6131 1062.59 12.7038L1061.9 12.7945L984.484 12.7491C987.027 11.0915 988.79 8.17434 989.719 4.00263C987.466 3.64491 974.409 0.0526028 971.668 12.7491H955.139L946.482 11.4492L941.104 10.6431L935.671 9.87729L930.244 9.25254L924.817 8.71344C917.527 8.129 910.244 7.81662 902.954 7.86197C894.149 7.90227 885.349 8.39603 876.592 9.38354C878.987 7.72593 880.015 4.89945 879.625 0.86377C877.96 1.04011 867.935 1.08545 868.721 10.4164C865.639 10.8648 862.557 11.3585 859.476 11.943C858.251 12.1647 857.081 12.4367 855.856 12.6584L818.881 12.6131L805.187 12.5677C809.345 11.2679 811.74 7.72593 812.229 1.98227C810.026 1.85128 796.821 -0.25977 795.991 12.5677L729.623 12.3007H729.573C729.524 12.3007 729.474 12.3007 729.425 12.3007C729.381 12.3007 729.381 12.3007 729.332 12.3007C729.282 12.3007 729.233 12.3461 729.183 12.3461C729.183 12.3461 729.134 12.3461 729.134 12.3914C729.084 12.3914 729.035 12.4367 728.986 12.4821C728.986 12.4821 728.936 12.4821 728.936 12.5274C728.892 12.5677 728.843 12.5677 728.793 12.6131L728.744 12.6584C728.694 12.7038 728.645 12.7491 728.645 12.7945C728.645 12.7945 728.645 12.8398 728.596 12.8398C728.546 12.8852 728.546 12.9305 728.497 12.9758V13.0161C728.497 13.0615 728.447 13.1068 728.447 13.1975V13.2429C728.447 13.2882 728.447 13.2882 728.447 13.3336C728.447 13.3789 728.447 13.3789 728.447 13.4243C728.447 13.4243 728.447 13.4243 728.447 13.4696C728.447 13.4696 728.447 13.4696 728.447 13.5099C728.447 13.5552 728.447 13.6459 728.447 13.6913V13.7366C728.447 13.782 728.497 13.8273 728.497 13.918V13.9583C728.497 14.0037 728.546 14.049 728.596 14.0943C728.596 14.0943 728.596 14.1397 728.645 14.1397C728.694 14.185 728.694 14.2304 728.744 14.2757L728.793 14.3211C728.843 14.3664 728.892 14.3664 728.892 14.4067L728.936 14.4521C728.986 14.4974 729.035 14.4974 729.084 14.4974C729.134 14.4974 729.134 14.5428 729.183 14.5428C729.233 14.5428 729.282 14.5881 729.282 14.5881C729.332 14.5881 729.381 14.5881 729.425 14.6334H729.474L764.252 17.6413C764.202 17.6413 764.153 17.6413 764.103 17.6816C764.351 25.4456 768.553 28.7205 776.721 27.5063C776.479 26.2971 775.941 20.4628 771.146 18.2661L772.958 18.4021C776.573 18.7145 780.193 19.0722 783.813 19.3443C785.626 19.4803 787.433 19.5659 789.29 19.702C791.102 19.7927 792.959 19.8834 794.772 19.9287C802.056 20.1504 809.395 20.0143 816.678 19.6113C823.968 19.2082 831.208 18.4021 838.442 17.3239C842.062 16.7848 845.633 16.16 849.203 15.4849C851.016 15.1272 852.823 14.7695 854.587 14.3664L887.057 14.3211C889.749 23.3346 895.813 26.1157 905.206 22.6645C904.668 21.541 903.102 16.9208 899.191 14.3211H908.239L955.727 14.2757L967.806 16.16C971.377 16.6991 974.997 17.2786 978.617 17.727L981.303 18.0897L984.044 18.4021C985.851 18.6238 987.664 18.7598 989.471 18.9412C994.904 19.3896 1000.33 19.6566 1005.76 19.7473C1007.81 26.7909 1012.41 28.9422 1019.55 26.2518C1019.11 25.3549 1017.79 21.5863 1014.51 19.7473C1020.73 19.6113 1026.98 19.2989 1033.15 18.7145C1034.96 18.5835 1036.77 18.3567 1038.57 18.13C1040.39 17.9083 1042.19 17.6816 1044.01 17.4599L1054.76 15.9787L1060.15 15.2632L1062.84 14.9005C1063.72 14.7695 1064.65 14.6334 1065.52 14.5428C1066.55 14.4521 1067.53 14.3211 1068.56 14.2304H1093.55C1094.24 14.3211 1094.97 14.3664 1095.65 14.4521C1096.58 14.5881 1097.51 14.6334 1098.44 14.7241L1120.74 16.6538L1132.14 17.6816C1131.99 17.6816 1131.89 17.727 1131.75 17.727C1131.99 25.491 1136.2 28.7659 1144.37 27.5516C1144.12 26.3425 1143.58 20.4225 1138.69 18.2661L1143.04 18.6691C1146.76 18.9865 1150.48 19.3443 1154.19 19.5659L1156.99 19.7473L1159.77 19.8834C1161.63 19.974 1163.54 19.974 1165.4 20.0597C1180.36 20.2864 1195.38 19.2082 1210.1 16.6991C1213.77 16.1147 1217.43 15.3489 1221.1 14.5881L1222.43 14.3211H1254.6C1257.3 23.3799 1263.36 26.2064 1272.8 22.7098C1272.26 21.5863 1270.64 16.9208 1266.73 14.3211L1323.52 14.4067C1329.97 15.3942 1336.38 16.4271 1342.84 17.3692C1352.96 18.8052 1363.18 19.6113 1373.45 19.7927C1375.51 26.7909 1380.1 28.9422 1387.24 26.2518C1386.8 25.3549 1385.48 21.6316 1382.25 19.7927C1384.07 19.7473 1385.83 19.702 1387.64 19.6113C1395.12 19.3443 1402.6 18.6691 1409.99 17.6816L1432.14 14.6788H1432.19L1443.93 14.7241C1444.61 14.7241 1445.15 14.2304 1445.15 13.6006C1445.3 12.7945 1444.71 12.3007 1444.07 12.3007ZM838.151 15.8023C831.01 16.8301 823.77 17.5506 816.536 17.9537C809.296 18.3567 802.056 18.4021 794.816 18.13C793.008 18.0897 791.201 17.9537 789.388 17.863C787.581 17.727 785.768 17.6413 783.961 17.5053C780.341 17.1929 776.721 16.8301 773.101 16.5178L752.172 14.4974L818.881 14.3211L847.248 14.2757C844.265 14.8148 841.233 15.3489 838.151 15.8023ZM895.472 12.6131C894.055 12.3007 892.44 12.3007 890.627 12.6131L863.337 12.5677C876.395 10.3257 889.699 9.16185 903.004 9.07116C910.244 9.02582 917.527 9.29285 924.718 9.92263L930.145 10.4617L935.529 11.0915L940.906 11.8523L946.191 12.6584L908.239 12.6131H895.472ZM1043.76 15.4396C1040.19 15.9333 1036.62 16.4271 1033 16.7848C1018.62 18.2661 1004.05 18.4021 989.62 17.2786C986 16.9662 982.38 16.6538 978.809 16.16C975.239 15.7116 971.668 15.1725 968.054 14.6334L964.774 14.1397H976.123C977.782 14.3664 979.298 14.3664 980.671 14.1397L1052.86 14.0943L1043.76 15.4396ZM1209.95 15.1272C1195.33 17.5506 1180.41 18.6238 1165.54 18.3114C1163.69 18.2661 1161.82 18.2207 1159.97 18.13L1157.18 17.999L1154.39 17.8176C1150.67 17.596 1147 17.2332 1143.29 16.8755L1121.04 14.7695L1114.44 14.1397L1215.58 14.185C1213.72 14.4974 1211.81 14.8148 1209.95 15.1272ZM1258.03 12.7038H1230.06L1232.11 12.3461C1239.44 11.1369 1246.83 10.235 1254.21 9.70095C1269.04 8.62275 1284 8.93513 1298.72 10.5978C1303.52 11.1369 1308.26 11.8523 1313 12.5677L1265.42 12.6584H1263.41C1261.89 12.3007 1260.08 12.2554 1258.03 12.7038ZM1409.74 15.5756C1402.4 16.6085 1395.02 17.3692 1387.59 17.727C1372.77 18.4474 1357.85 17.7723 1343.13 15.8023C1339.75 15.3489 1336.38 14.8148 1333 14.3211H1345.23C1345.87 14.3664 1346.51 14.3664 1347.09 14.3211H1354.72L1417.22 14.4974L1409.74 15.5756Z" fill="#A2C17C"/>
<path d="M1041.27 3.64481C1039.56 3.3274 1029.63 0.369922 1027.47 10.1946C1034.91 12.749 1039.51 10.5523 1041.27 3.64481Z" fill="#A2C17C"/>
<path d="M1409 3.64481C1407.3 3.3274 1397.36 0.369922 1395.22 10.1946C1402.65 12.749 1407.25 10.5523 1409 3.64481Z" fill="#A2C17C"/>
</g>
<defs>
<clipPath id="clip0_2021_19180">
<rect width="1435" height="28" fill="white"/>
</clipPath>
</defs>
</svg>
