<svg width="719" height="29" viewBox="0 0 719 29" fill="none" xmlns="http://www.w3.org/2000/svg">
<mask id="mask0_153_23908" style="mask-type:luminance" maskUnits="userSpaceOnUse" x="0" y="0" width="719" height="29">
<path d="M0.21875 0.740234H718.812V29.0001H0.21875V0.740234Z" fill="white"/>
</mask>
<g mask="url(#mask0_153_23908)">
<path d="M717.153 13.3007L705.414 13.3461C705.271 13.3007 705.073 13.3007 704.925 13.3461H704.782L627.85 13.5677H625.549C627.944 11.9101 629.658 9.03831 630.537 5.00263C628.29 4.64491 615.326 1.0526 612.541 13.6131L595.177 13.6584L594.15 13.4821L583.098 11.7741C581.235 11.5071 579.379 11.235 577.572 10.968C575.709 10.7009 573.853 10.5196 571.996 10.2928C557.126 8.63525 542.113 8.36821 527.194 9.44137C523.969 9.6681 520.69 9.98047 517.46 10.3382C519.86 8.68059 520.838 5.8541 520.443 1.86377C518.784 2.04011 508.803 2.08545 509.539 11.371C507.973 11.5978 506.457 11.8195 504.941 12.0915L499.415 13.079L495.795 13.7945L445.126 13.8398C449.872 12.7616 452.509 9.129 453.096 2.98227C450.899 2.85128 437.644 0.74023 436.859 13.6131C437.254 13.7038 437.595 13.7491 437.935 13.7945L373.869 13.8398L371.864 13.6584C370.93 13.5677 370.001 13.4821 369.073 13.3461C368.145 13.21 367.216 13.1193 366.288 13.0337C364.426 12.8523 362.52 12.6709 360.663 12.5853C356.895 12.3585 353.132 12.3132 349.364 12.4492C345.694 12.6256 342.03 12.943 338.41 13.3461C337.476 13.4367 336.597 13.6131 335.669 13.7038L334.982 13.7945L257.562 13.7491C260.105 12.0915 261.868 9.17434 262.797 5.00263C260.545 4.64491 247.487 1.0526 244.746 13.7491H228.217L219.56 12.4492L214.182 11.6431L208.755 10.8773L203.322 10.2525L197.895 9.71344C190.606 9.129 183.322 8.81662 176.032 8.86197C167.227 8.90227 158.427 9.39603 149.671 10.3835C152.066 8.72593 153.093 5.89945 152.703 1.86377C151.038 2.04011 141.013 2.08545 141.799 11.4164C138.717 11.8648 135.635 12.3585 132.554 12.943C131.329 13.1647 130.159 13.4367 128.934 13.6584L91.9594 13.6131L78.2649 13.5677C82.4232 12.2679 84.8182 8.72593 85.3071 2.98227C83.1044 2.85128 69.9043 0.74023 69.0693 13.5677L2.70093 13.3007H2.65149C2.60205 13.3007 2.55261 13.3007 2.50867 13.3007C2.45923 13.3007 2.45923 13.3007 2.40979 13.3007C2.36035 13.3007 2.31091 13.3461 2.26147 13.3461C2.26147 13.3461 2.21204 13.3461 2.21204 13.3914C2.1626 13.3914 2.11316 13.4367 2.06372 13.4821C2.06372 13.4821 2.01428 13.4821 2.01428 13.5274C1.97034 13.5677 1.9209 13.5677 1.87146 13.6131L1.82202 13.6584C1.77258 13.7038 1.72314 13.7491 1.72314 13.7945C1.72314 13.7945 1.72314 13.8398 1.6737 13.8398C1.62427 13.8852 1.62427 13.9305 1.57483 13.9758V14.0161C1.57483 14.0615 1.52539 14.1068 1.52539 14.1975V14.2429C1.52539 14.2882 1.52539 14.2882 1.52539 14.3336C1.52539 14.3789 1.52539 14.3789 1.52539 14.4243C1.52539 14.4243 1.52539 14.4243 1.52539 14.4696C1.52539 14.4696 1.52539 14.4696 1.52539 14.5099C1.52539 14.5552 1.52539 14.6459 1.52539 14.6913V14.7366C1.52539 14.782 1.57483 14.8273 1.57483 14.918V14.9583C1.57483 15.0037 1.62427 15.049 1.6737 15.0943C1.6737 15.0943 1.67371 15.1397 1.72314 15.1397C1.77258 15.185 1.77258 15.2304 1.82202 15.2757L1.87146 15.3211C1.9209 15.3664 1.97034 15.3664 1.97034 15.4067L2.01428 15.4521C2.06372 15.4974 2.11316 15.4974 2.1626 15.4974C2.21204 15.4974 2.21204 15.5428 2.26147 15.5428C2.31091 15.5428 2.36035 15.5881 2.36035 15.5881C2.40979 15.5881 2.45923 15.5881 2.50867 15.6334H2.55261L37.3298 18.6413C37.2804 18.6413 37.231 18.6413 37.1815 18.6816C37.4287 26.4456 41.631 29.7205 49.7993 28.5063C49.5576 27.2971 49.0193 21.4628 44.2238 19.2661L46.0365 19.4021C49.651 19.7145 53.271 20.0722 56.891 20.3443C58.7037 20.4803 60.511 20.5659 62.3677 20.702C64.1804 20.7927 66.0371 20.8834 67.8499 20.9287C75.1338 21.1504 82.4727 21.0143 89.7566 20.6113C97.046 20.2082 104.286 19.4021 111.521 18.3239C115.141 17.7848 118.711 17.16 122.282 16.4849C124.094 16.1272 125.902 15.7695 127.665 15.3664L160.135 15.3211C162.827 24.3346 168.891 27.1157 178.284 23.6645C177.746 22.541 176.181 17.9208 172.269 15.3211H181.317L228.805 15.2757L240.885 17.16C244.455 17.6991 248.075 18.2786 251.695 18.727L254.381 19.0897L257.122 19.4021C258.935 19.6238 260.742 19.7598 262.55 19.9412C267.982 20.3896 273.41 20.6566 278.837 20.7473C280.891 27.7909 285.489 29.9422 292.63 27.2518C292.191 26.3549 290.867 22.5863 287.593 20.7473C293.806 20.6113 300.062 20.2989 306.226 19.7145C308.038 19.5835 309.846 19.3567 311.653 19.13C313.466 18.9083 315.273 18.6816 317.086 18.4599L327.847 16.9787L333.225 16.2632L335.916 15.9005C336.795 15.7695 337.724 15.6334 338.602 15.5428C339.63 15.4521 340.607 15.3211 341.635 15.2304H366.629C367.315 15.3211 368.046 15.3664 368.732 15.4521C369.661 15.5881 370.589 15.6334 371.517 15.7241L393.82 17.6538L405.218 18.6816C405.07 18.6816 404.971 18.727 404.828 18.727C405.07 26.491 409.277 29.7659 417.446 28.5516C417.199 27.3425 416.66 21.4225 411.771 19.2661L416.122 19.6691C419.841 19.9865 423.56 20.3443 427.273 20.5659L430.064 20.7473L432.849 20.8834C434.711 20.974 436.617 20.974 438.474 21.0597C453.443 21.2864 468.455 20.2082 483.177 17.6991C486.846 17.1147 490.516 16.3489 494.18 15.5881L495.504 15.3211H527.683C530.374 24.3799 536.439 27.2064 545.876 23.7098C545.338 22.5863 543.728 17.9208 539.812 15.3211L596.594 15.4067C603.049 16.3942 609.459 17.4271 615.914 18.3692C626.038 19.8052 636.26 20.6113 646.533 20.7927C648.587 27.7909 653.185 29.9422 660.321 27.2518C659.881 26.3549 658.563 22.6316 655.333 20.7927C657.146 20.7473 658.903 20.702 660.716 20.6113C668.198 20.3443 675.679 19.6691 683.068 18.6816L705.222 15.6788H705.271L717.01 15.7241C717.691 15.7241 718.229 15.2304 718.229 14.6006C718.378 13.7945 717.79 13.3007 717.153 13.3007ZM111.229 16.8023C104.088 17.8301 96.8483 18.5506 89.6138 18.9537C82.3738 19.3567 75.1338 19.4021 67.8938 19.13C66.0865 19.0897 64.2793 18.9537 62.4666 18.863C60.6593 18.727 58.8466 18.6413 57.0393 18.5053C53.4193 18.1929 49.7993 17.8301 46.1793 17.5178L25.2504 15.4974L91.9594 15.3211L120.326 15.2757C117.343 15.8148 114.311 16.3489 111.229 16.8023ZM168.551 13.6131C167.133 13.3007 165.518 13.3007 163.706 13.6131L136.416 13.5677C149.473 11.3257 162.777 10.1618 176.082 10.0712C183.322 10.0258 190.606 10.2928 197.796 10.9226L203.223 11.4617L208.607 12.0915L213.984 12.8523L219.269 13.6584L181.317 13.6131H168.551ZM316.839 16.4396C313.268 16.9333 309.697 17.4271 306.077 17.7848C291.702 19.2661 277.128 19.4021 262.698 18.2786C259.078 17.9662 255.458 17.6538 251.887 17.16C248.317 16.7116 244.746 16.1725 241.132 15.6334L237.852 15.1397H249.201C250.86 15.3664 252.376 15.3664 253.75 15.1397L325.935 15.0943L316.839 16.4396ZM483.029 16.1272C468.406 18.5506 453.492 19.6238 438.622 19.3114C436.765 19.2661 434.903 19.2207 433.046 19.13L430.256 18.999L427.471 18.8176C423.752 18.596 420.088 18.2332 416.369 17.8755L394.116 15.7695L387.514 15.1397L488.654 15.185C486.797 15.4974 484.891 15.8148 483.029 16.1272ZM531.105 13.7038H503.134L505.188 13.3461C512.521 12.1369 519.91 11.235 527.293 10.7009C542.113 9.62275 557.077 9.93513 571.798 11.5978C576.594 12.1369 581.334 12.8523 586.08 13.5677L538.493 13.6584H536.488C534.972 13.3007 533.159 13.2554 531.105 13.7038ZM682.821 16.5756C675.487 17.6085 668.099 18.3692 660.667 18.727C645.846 19.4474 630.927 18.7723 616.205 16.8023C612.832 16.3489 609.459 15.8148 606.081 15.3211H618.309C618.946 15.3664 619.583 15.3664 620.171 15.3211H627.801L690.302 15.4974L682.821 16.5756Z" fill="#A2C17C"/>
</g>
</svg>
